<svg xmlns="http://www.w3.org/2000/svg" xmlns:xlink="http://www.w3.org/1999/xlink" width="360" zoomAndPan="magnify" viewBox="0 0 270 269.999989" height="360" preserveAspectRatio="xMidYMid meet" version="1.0"><defs><g/><clipPath id="2b28fe5614"><path d="M 11 33.027344 L 203 33.027344 L 203 234.855469 L 11 234.855469 Z M 11 33.027344 " clip-rule="nonzero"/></clipPath><clipPath id="d46b5a0342"><path d="M 0.441406 234 L 212.839844 234 L 212.839844 267 L 0.441406 267 Z M 0.441406 234 " clip-rule="nonzero"/></clipPath><clipPath id="38cf2fd82a"><rect x="0" width="213" y="0" height="33"/></clipPath><clipPath id="9496dbc3fc"><rect x="0" width="213" y="0" height="270"/></clipPath></defs><g transform="matrix(1, 0, 0, 1, 31, 0)"><g clip-path="url(#9496dbc3fc)"><g clip-path="url(#2b28fe5614)"><path fill="#040404" d="M 135.167969 -14.546875 C 133.980469 -14.03125 133.074219 -12.34375 133.3125 -11.09375 C 133.777344 -8.621094 136.683594 -7.535156 138.519531 -9.148438 C 139.742188 -10.21875 140.019531 -11.722656 139.261719 -13.15625 C 138.523438 -14.550781 136.644531 -15.191406 135.167969 -14.546875 M 80.8125 -14.445312 C 79.957031 -14.238281 79.390625 -13.816406 78.894531 -13.019531 L 78.457031 -12.320312 L 78.367188 -1.824219 C 78.261719 10.03125 78.382812 9.117188 76.71875 10.671875 C 75.261719 12.035156 74.398438 12.355469 72.179688 12.355469 C 70.875 12.355469 70.230469 12.28125 70.015625 12.105469 C 69.742188 11.875 69.710938 11.140625 69.710938 4.921875 C 69.710938 -1.558594 69.6875 -2.042969 69.359375 -2.582031 C 68.636719 -3.769531 66.171875 -4.402344 65.070312 -3.683594 C 64.796875 -3.503906 64.40625 -3.007812 64.199219 -2.578125 C 63.53125 -1.203125 63.390625 0.835938 63.5 7.476562 C 63.558594 10.871094 63.53125 14.085938 63.445312 14.621094 C 63.210938 16.054688 62.488281 17.476562 61.414062 18.613281 C 60.296875 19.792969 59.382812 20.367188 57.78125 20.890625 C 56.0625 21.457031 55.183594 22.015625 54.6875 22.867188 C 54.160156 23.765625 54.128906 24.613281 54.589844 25.613281 C 55.164062 26.867188 55.554688 27.089844 57.164062 27.085938 C 60.652344 27.078125 65.195312 24.070312 67.867188 20.003906 C 68.402344 19.191406 68.929688 18.523438 69.042969 18.523438 C 69.160156 18.523438 76.195312 18.480469 84.683594 18.433594 C 93.988281 18.382812 100.75 18.269531 101.707031 18.152344 C 106.480469 17.558594 109.5625 14.984375 111.140625 10.277344 C 111.960938 7.832031 112.214844 5.265625 111.839844 3.242188 C 111.457031 1.171875 110.910156 -0.226562 110.023438 -1.40625 C 108.226562 -3.804688 105.484375 -4.726562 102.140625 -4.046875 C 97.964844 -3.203125 91.632812 0.0429688 86.429688 4 C 85.644531 4.597656 84.890625 5.082031 84.753906 5.082031 C 84.398438 5.082031 84.261719 1.945312 84.261719 -6.078125 C 84.257812 -12.476562 84.253906 -12.546875 83.84375 -13.148438 C 83.066406 -14.292969 82.027344 -14.734375 80.8125 -14.445312 M 118.195312 -14.257812 C 117.871094 -14.0625 117.414062 -13.542969 117.183594 -13.109375 L 116.761719 -12.320312 L 116.707031 -1.914062 C 116.671875 5.289062 116.71875 8.878906 116.867188 9.75 C 117.179688 11.628906 118.308594 13.746094 119.785156 15.230469 C 121.972656 17.425781 124.558594 18.371094 128.453125 18.394531 C 132.613281 18.417969 135.316406 17.34375 137.34375 14.863281 C 139.1875 12.613281 139.460938 11.21875 139.609375 3.324219 L 139.722656 -2.664062 L 139.25 -3.625 C 138.445312 -5.253906 136.914062 -5.925781 135.359375 -5.332031 C 134.800781 -5.117188 134.414062 -4.804688 134.125 -4.34375 C 133.710938 -3.675781 133.699219 -3.539062 133.597656 3.058594 C 133.5 9.484375 133.476562 9.8125 133.097656 10.546875 C 132.574219 11.550781 131.878906 12.023438 130.371094 12.394531 C 127.5625 13.085938 123.832031 11.746094 122.992188 9.738281 C 122.796875 9.269531 122.71875 6.773438 122.621094 -1.84375 L 122.5 -12.824219 L 122.03125 -13.378906 C 121.066406 -14.527344 119.296875 -14.929688 118.195312 -14.257812 M 52.015625 -14.019531 C 50.679688 -13.125 50.746094 -13.957031 50.746094 1.925781 C 50.746094 17.671875 50.691406 16.964844 51.917969 17.839844 C 52.738281 18.421875 54.644531 18.421875 55.464844 17.839844 C 56.691406 16.964844 56.636719 17.671875 56.636719 1.925781 C 56.636719 -13.957031 56.703125 -13.125 55.367188 -14.019531 C 54.492188 -14.601562 52.890625 -14.601562 52.015625 -14.019531 M 41.167969 -13.867188 C 38.203125 -13.484375 34.976562 -12.648438 32.617188 -11.648438 C 27.773438 -9.597656 22.707031 -3.652344 22.980469 -0.335938 C 23.121094 1.40625 23.753906 1.875 27.335938 2.90625 C 32.113281 4.277344 38.058594 6.976562 39.714844 8.523438 C 40.535156 9.289062 41.722656 11.246094 41.722656 11.828125 C 41.722656 11.960938 41.566406 12.148438 41.378906 12.25 C 41.179688 12.359375 37.988281 12.480469 33.691406 12.546875 C 25.046875 12.679688 19.972656 12.410156 19.117188 11.773438 C 18.175781 11.070312 17.953125 10.574219 17.785156 8.792969 C 17.605469 6.851562 17.265625 6.117188 16.3125 5.609375 C 15.539062 5.195312 14.105469 5.160156 13.375 5.535156 C 13.089844 5.683594 12.628906 6.074219 12.351562 6.402344 C 11.851562 7 11.851562 7.007812 11.933594 9.308594 C 12.003906 11.1875 12.105469 11.851562 12.480469 12.855469 C 13.753906 16.253906 16.40625 17.957031 21.035156 18.339844 C 23.6875 18.558594 36.808594 18.566406 40.25 18.351562 C 43.15625 18.167969 44.382812 17.789062 45.636719 16.683594 C 46.796875 15.664062 47.292969 14.4375 47.390625 12.34375 C 47.492188 10.234375 47.222656 8.945312 46.292969 7.089844 C 44.445312 3.394531 40.359375 0.910156 30.714844 -2.378906 C 30.03125 -2.613281 32.640625 -4.804688 35 -5.984375 C 37.089844 -7.027344 38.570312 -7.382812 43.332031 -7.988281 C 46.785156 -8.425781 47.019531 -8.496094 47.667969 -9.269531 C 48.871094 -10.699219 48.398438 -12.832031 46.6875 -13.703125 C 46.105469 -14 45.632812 -14.0625 44.167969 -14.046875 C 43.179688 -14.03125 41.828125 -13.953125 41.167969 -13.867188 M 172.289062 -5.117188 C 171.070312 -4.089844 171.09375 -4.246094 170.992188 4.039062 C 170.898438 11.523438 170.898438 11.5625 170.492188 11.890625 C 169.648438 12.574219 165.835938 12.527344 165.128906 11.824219 C 164.871094 11.566406 164.804688 10.929688 164.703125 7.882812 C 164.570312 3.785156 164.402344 2.773438 163.53125 0.9375 C 161.558594 -3.210938 156.648438 -5.597656 152.144531 -4.597656 C 148.222656 -3.722656 144.976562 -0.699219 144.019531 2.972656 C 143.691406 4.238281 143.652344 6.675781 143.941406 8.066406 C 144.25 9.558594 145.289062 11.566406 146.363281 12.742188 C 149.429688 16.105469 154.050781 17.097656 158.332031 15.304688 C 158.894531 15.070312 158.695312 15.609375 157.738281 16.902344 C 156.292969 18.863281 154.488281 20.085938 151.417969 21.191406 C 149.566406 21.855469 148.847656 23.058594 149.261719 24.785156 C 149.585938 26.140625 150.691406 26.996094 152.109375 26.996094 C 152.445312 26.996094 153.289062 26.820312 153.984375 26.605469 C 157.582031 25.496094 160.742188 23.082031 162.976562 19.738281 L 163.972656 18.25 L 167.25 18.238281 C 170.230469 18.226562 170.683594 18.179688 172.222656 17.738281 L 173.910156 17.25 L 175.71875 17.730469 C 177.25 18.136719 177.921875 18.207031 180.105469 18.210938 C 182.277344 18.214844 182.902344 18.148438 184.066406 17.792969 C 185.792969 17.261719 186.332031 17.269531 188.394531 17.851562 C 191.488281 18.730469 195.503906 18.417969 197.898438 17.113281 C 199.648438 16.160156 200.949219 14.277344 201.382812 12.066406 C 201.515625 11.394531 201.539062 8.707031 201.453125 3.820312 C 201.328125 -3.09375 201.304688 -3.464844 200.929688 -4.171875 C 200.414062 -5.148438 199.558594 -5.597656 198.214844 -5.597656 C 197.347656 -5.597656 197.066406 -5.511719 196.578125 -5.101562 C 195.496094 -4.191406 195.484375 -4.089844 195.480469 3.742188 C 195.476562 11.460938 195.460938 11.589844 194.492188 12.054688 C 193.421875 12.566406 190.527344 12.484375 189.617188 11.914062 C 189.421875 11.792969 189.34375 10.21875 189.246094 4.140625 C 189.136719 -2.539062 189.082031 -3.550781 188.804688 -4.0625 C 188.082031 -5.410156 186.359375 -5.941406 184.953125 -5.253906 C 184.515625 -5.042969 183.949219 -4.5625 183.695312 -4.1875 L 183.238281 -3.507812 L 183.113281 4.03125 C 183.046875 8.175781 182.921875 11.636719 182.839844 11.714844 C 182.507812 12.027344 180.875 12.449219 179.996094 12.449219 C 178.824219 12.449219 177.515625 12.125 177.210938 11.753906 C 177.03125 11.539062 176.953125 9.6875 176.882812 3.996094 C 176.796875 -3.082031 176.773438 -3.515625 176.417969 -4.125 C 175.625 -5.5 173.382812 -6.039062 172.289062 -5.117188 M 152.664062 1.496094 C 148.023438 3.214844 149.222656 10.101562 154.160156 10.101562 C 157.796875 10.101562 159.863281 6.027344 157.722656 3.074219 C 156.625 1.554688 154.386719 0.859375 152.664062 1.496094 M 103.132812 1.976562 C 99.617188 2.652344 98.019531 3.457031 91.347656 7.921875 C 85.617188 11.761719 85.035156 12.179688 85.199219 12.34375 C 85.25 12.394531 89.054688 12.375 93.660156 12.300781 L 102.03125 12.167969 L 103.027344 11.617188 C 104.171875 10.988281 104.886719 10.097656 105.445312 8.609375 C 106.175781 6.664062 106.089844 3.417969 105.277344 2.320312 C 104.894531 1.796875 104.449219 1.726562 103.132812 1.976562 M 107.128906 245.613281 C 106.976562 245.761719 106.910156 246.675781 106.910156 248.527344 L 106.910156 251.222656 L 106.441406 251.4375 C 106.183594 251.554688 105.652344 251.652344 105.265625 251.652344 C 104.261719 251.652344 104.085938 251.964844 104.050781 253.785156 C 104.011719 255.757812 104.144531 255.964844 105.460938 255.941406 C 106.003906 255.933594 106.550781 256.007812 106.679688 256.113281 C 106.855469 256.257812 106.910156 257.890625 106.910156 263.144531 C 106.910156 268.226562 106.964844 270.050781 107.128906 270.214844 C 107.472656 270.554688 112.136719 270.519531 112.421875 270.171875 C 112.578125 269.984375 112.652344 268.019531 112.683594 263.125 C 112.707031 259.394531 112.792969 256.238281 112.871094 256.105469 C 112.964844 255.957031 113.34375 255.886719 113.910156 255.910156 C 115.292969 255.972656 115.402344 255.796875 115.339844 253.605469 L 115.289062 251.742188 L 114.113281 251.613281 C 113.46875 251.542969 112.902344 251.445312 112.851562 251.394531 C 112.804688 251.347656 112.71875 250.078125 112.667969 248.578125 C 112.613281 247.078125 112.488281 245.746094 112.386719 245.621094 C 112.136719 245.304688 107.445312 245.296875 107.128906 245.613281 M 184.664062 257.863281 L 184.710938 270.34375 L 190.050781 270.34375 L 190.175781 265.09375 C 190.246094 262.207031 190.398438 259.402344 190.515625 258.863281 C 190.992188 256.648438 193.191406 255.683594 195.023438 256.882812 C 196.035156 257.546875 196.097656 257.902344 196.273438 264.171875 C 196.371094 267.671875 196.507812 270.0625 196.625 270.203125 C 196.894531 270.527344 201.625 270.53125 201.878906 270.203125 C 202.40625 269.539062 202.246094 258.074219 201.679688 255.980469 C 201.3125 254.617188 200.714844 253.558594 199.789062 252.632812 C 198.539062 251.382812 197.570312 251.007812 195.574219 251.007812 C 193.652344 251.007812 192.222656 251.414062 191.285156 252.230469 C 190.117188 253.246094 190.09375 253.1875 190.167969 249.121094 L 190.234375 245.484375 L 184.617188 245.382812 L 184.664062 257.863281 M 16.101562 251.203125 C 13.589844 251.976562 11.335938 254.832031 11.339844 257.230469 C 11.34375 258.242188 12.035156 259.703125 12.851562 260.421875 C 13.625 261.101562 15.667969 262.101562 18.335938 263.105469 C 21.246094 264.203125 21.476562 264.582031 20.085938 265.96875 C 19.351562 266.703125 19.191406 266.785156 18.660156 266.683594 C 18.253906 266.609375 17.789062 266.273438 17.226562 265.644531 L 16.394531 264.714844 L 13.820312 264.765625 C 11.332031 264.816406 11.246094 264.832031 11.1875 265.222656 C 11.089844 265.914062 12.109375 267.710938 13.269531 268.886719 C 14.738281 270.371094 15.894531 270.832031 18.449219 270.945312 C 21.167969 271.066406 23.042969 270.460938 24.703125 268.929688 C 26.542969 267.234375 27.066406 264.550781 25.972656 262.417969 C 25.070312 260.652344 23.664062 259.78125 19.839844 258.628906 C 18.492188 258.21875 17.121094 257.402344 16.921875 256.886719 C 16.777344 256.507812 17.355469 255.914062 18.042969 255.730469 C 18.769531 255.539062 19.488281 255.738281 20.199219 256.335938 C 20.738281 256.792969 20.839844 256.808594 23.320312 256.808594 C 26.265625 256.808594 26.183594 256.875 25.507812 255.074219 C 24.773438 253.113281 22.9375 251.582031 20.765625 251.121094 C 19.449219 250.84375 17.144531 250.882812 16.101562 251.203125 M 38.273438 251.179688 C 35.476562 251.859375 32.675781 254.125 31.519531 256.652344 C 31.179688 257.394531 30.808594 258.445312 30.695312 258.980469 C 29.816406 263.167969 31.984375 267.757812 35.789062 269.753906 C 37.449219 270.628906 38.878906 270.988281 40.710938 270.988281 C 43.644531 270.988281 46.089844 269.933594 48.101562 267.804688 C 52.019531 263.644531 51.800781 257.492188 47.59375 253.59375 C 46.382812 252.476562 44.394531 251.433594 42.863281 251.117188 C 41.601562 250.855469 39.492188 250.882812 38.273438 251.179688 M 65.570312 251.03125 C 63.960938 251.277344 63.089844 251.664062 62.5 252.398438 C 61.777344 253.296875 61.332031 253.289062 61.332031 252.382812 L 61.332031 251.742188 L 58.804688 251.691406 C 56.308594 251.640625 56.277344 251.644531 56.175781 252.0625 C 56.121094 252.292969 56.097656 256.5 56.125 261.410156 L 56.175781 270.34375 L 61.703125 270.34375 L 61.796875 264.632812 C 61.898438 258.539062 61.949219 258.195312 62.894531 257.210938 C 63.445312 256.632812 64.027344 256.4375 65.199219 256.4375 C 65.996094 256.4375 66.296875 256.53125 66.765625 256.929688 C 67.085938 257.199219 67.445312 257.632812 67.558594 257.894531 C 67.695312 258.203125 67.804688 260.5 67.867188 264.359375 L 67.960938 270.34375 L 73.488281 270.34375 L 73.535156 264.035156 C 73.585938 257.28125 73.46875 256 72.644531 254.292969 C 72.066406 253.101562 70.800781 251.925781 69.613281 251.480469 C 68.589844 251.097656 66.589844 250.875 65.570312 251.03125 M 86.007812 251.265625 C 81.335938 252.628906 78.839844 256.082031 78.867188 261.136719 C 78.890625 265.125 80.835938 268.695312 83.734375 270.0625 C 85.304688 270.808594 86.589844 271.039062 88.679688 270.957031 C 90.386719 270.886719 90.503906 270.855469 91.742188 270.105469 C 93.324219 269.152344 93.835938 269.097656 93.835938 269.886719 L 93.835938 270.445312 L 99.453125 270.34375 L 99.5 261.25 C 99.535156 254.6875 99.488281 252.085938 99.339844 251.902344 C 99.179688 251.714844 98.53125 251.652344 96.710938 251.65625 C 95.382812 251.65625 94.199219 251.71875 94.078125 251.792969 C 93.960938 251.871094 93.835938 252.195312 93.804688 252.519531 L 93.742188 253.109375 L 92.613281 252.390625 C 90.367188 250.957031 88.277344 250.601562 86.007812 251.265625 M 128.402344 251.117188 C 127.40625 251.351562 126.726562 251.738281 126.1875 252.382812 C 125.65625 253.011719 125.324219 253.101562 125.324219 252.613281 C 125.324219 252.433594 125.1875 252.089844 125.019531 251.851562 C 124.71875 251.425781 124.671875 251.417969 122.527344 251.515625 C 121.21875 251.578125 120.230469 251.707031 120.066406 251.84375 C 119.832031 252.035156 119.800781 253.339844 119.84375 261.207031 L 119.890625 270.34375 L 125.414062 270.34375 L 125.507812 264.601562 C 125.59375 259.140625 125.617188 258.835938 125.984375 258.339844 C 126.582031 257.535156 127.449219 257.039062 128.503906 256.894531 C 129.03125 256.824219 129.570312 256.683594 129.695312 256.582031 C 129.863281 256.449219 129.925781 255.648438 129.925781 253.765625 C 129.925781 250.695312 129.957031 250.75 128.402344 251.117188 M 140.175781 251.277344 C 138.058594 251.953125 135.804688 253.855469 134.761719 255.84375 C 133.75 257.773438 133.519531 258.730469 133.519531 261.042969 C 133.519531 262.625 133.609375 263.417969 133.863281 264.171875 C 135.082031 267.761719 137.558594 270.148438 140.75 270.8125 C 141.917969 271.058594 144.675781 270.949219 145.828125 270.613281 C 146.21875 270.5 146.890625 270.082031 147.324219 269.683594 C 148.257812 268.824219 148.527344 268.78125 148.527344 269.492188 C 148.527344 270.386719 148.882812 270.511719 151.378906 270.511719 C 152.894531 270.511719 153.730469 270.4375 153.914062 270.289062 C 154.144531 270.097656 154.199219 268.71875 154.273438 261.269531 C 154.324219 256.4375 154.296875 252.292969 154.210938 252.066406 C 154.0625 251.664062 153.984375 251.652344 151.554688 251.652344 C 148.945312 251.652344 148.339844 251.789062 148.339844 252.394531 C 148.339844 252.859375 148.332031 252.855469 147.1875 252.21875 C 144.921875 250.957031 142.289062 250.605469 140.175781 251.277344 M 167.125 251.195312 C 165.648438 251.558594 164.78125 251.957031 163.484375 252.878906 C 160.363281 255.101562 158.714844 259.625 159.671875 263.351562 C 160.164062 265.265625 160.824219 266.375 162.414062 267.957031 C 166.003906 271.53125 170.777344 272.132812 174.835938 269.527344 C 176.789062 268.273438 179.402344 264.855469 179.242188 263.757812 C 179.191406 263.386719 179.046875 263.332031 177.804688 263.21875 C 177.046875 263.148438 175.824219 263.167969 175.09375 263.261719 C 173.894531 263.410156 173.65625 263.511719 172.707031 264.285156 C 171.433594 265.324219 170.707031 265.648438 169.664062 265.644531 C 168.710938 265.644531 167.222656 264.972656 166.535156 264.242188 C 165.261719 262.886719 164.835938 260.421875 165.613281 258.917969 C 166.433594 257.320312 167.925781 256.375 169.609375 256.378906 C 171.050781 256.382812 171.902344 256.765625 172.992188 257.902344 L 173.882812 258.832031 L 176.558594 258.832031 C 178.867188 258.832031 179.253906 258.792969 179.355469 258.53125 C 179.421875 258.359375 179.175781 257.636719 178.777344 256.828125 C 177.960938 255.167969 175.859375 252.941406 174.367188 252.148438 C 172.285156 251.046875 169.320312 250.65625 167.125 251.195312 M 39.050781 256.695312 C 37.394531 257.417969 36.382812 259.070312 36.386719 261.042969 C 36.390625 262.570312 36.808594 263.5 37.925781 264.484375 C 39.769531 266.105469 42.285156 265.929688 43.925781 264.058594 C 44.761719 263.105469 45.035156 262.351562 45.035156 261.003906 C 45.03125 259.046875 43.988281 257.382812 42.328125 256.6875 C 41.578125 256.375 39.777344 256.378906 39.050781 256.695312 M 87.050781 256.917969 C 85.496094 257.695312 84.582031 259.175781 84.574219 260.941406 C 84.566406 262.792969 85.460938 264.273438 87.113281 265.148438 C 88.085938 265.664062 90.128906 265.703125 91.09375 265.222656 C 93.167969 264.191406 94.214844 261.878906 93.582031 259.726562 C 92.773438 256.964844 89.652344 255.621094 87.050781 256.917969 M 141.753906 256.839844 C 139.582031 257.890625 138.550781 260.828125 139.613281 262.933594 C 140.035156 263.773438 140.941406 264.691406 141.804688 265.152344 C 142.839844 265.703125 144.824219 265.699219 145.875 265.144531 C 146.765625 264.675781 147.726562 263.628906 148.109375 262.714844 C 148.257812 262.355469 148.378906 261.542969 148.375 260.914062 C 148.363281 259.011719 147.316406 257.46875 145.53125 256.722656 C 144.554688 256.3125 142.71875 256.371094 141.753906 256.839844 " fill-opacity="1" fill-rule="evenodd"/></g><path fill="#e46136" d="M 17.796875 38.882812 C 14.492188 39.601562 11.96875 42.070312 11.132812 45.410156 C 10.921875 46.253906 10.878906 52.820312 10.878906 84.910156 L 10.878906 123.394531 L 11.300781 124.5625 C 12.296875 127.324219 14.308594 129.355469 16.941406 130.257812 C 17.820312 130.558594 21.992188 130.582031 86.929688 130.667969 C 151.246094 130.753906 156.03125 130.78125 156.671875 131.074219 C 157.742188 131.558594 158.132812 132.34375 158.0625 133.890625 C 157.996094 135.402344 157.585938 136.136719 156.492188 136.675781 C 155.820312 137.011719 153.695312 137.023438 83.339844 137.113281 L 10.878906 137.207031 L 10.878906 180.113281 L 48.792969 180.15625 C 76.449219 180.191406 86.777344 180.261719 86.957031 180.410156 C 87.320312 180.714844 87.308594 185.515625 86.945312 186.015625 C 86.6875 186.367188 86.03125 186.375 48.78125 186.464844 L 10.878906 186.558594 L 10.832031 207.941406 C 10.792969 225.769531 10.824219 229.359375 11.035156 229.53125 C 11.21875 229.683594 36.152344 229.726562 106.746094 229.691406 L 202.203125 229.644531 L 202.25 207.964844 L 202.296875 186.28125 L 126.277344 186.28125 L 126.15625 184.578125 C 126.085938 183.640625 126.058594 182.292969 126.09375 181.585938 L 126.152344 180.296875 L 160.585938 180.203125 L 195.023438 180.113281 L 196.199219 179.6875 C 199.148438 178.621094 200.992188 176.679688 201.886719 173.695312 C 202.136719 172.863281 202.191406 168.179688 202.347656 135.230469 C 202.503906 101.660156 202.492188 97.539062 202.238281 96.023438 C 201.703125 92.84375 200.144531 90.597656 197.625 89.363281 C 195.339844 88.246094 199.984375 88.316406 126.621094 88.316406 C 83.089844 88.316406 59.113281 88.25 58.488281 88.132812 C 57.265625 87.902344 56.5 87.355469 56.066406 86.402344 C 55.3125 84.734375 55.820312 83.242188 57.414062 82.453125 L 58.28125 82.023438 L 130.242188 81.902344 L 202.203125 81.777344 L 202.203125 38.6875 L 110.59375 38.65625 C 32.785156 38.628906 18.800781 38.664062 17.796875 38.882812 " fill-opacity="1" fill-rule="evenodd"/><g clip-path="url(#d46b5a0342)"><g transform="matrix(1, 0, 0, 1, -0.000000000000010658, 234)"><g clip-path="url(#38cf2fd82a)"><g fill="#000000" fill-opacity="1"><g transform="translate(0.54267, 22.982994)"><g><path d="M 6.265625 -20.84375 L 6.265625 -4.171875 L 13.4375 -4.171875 L 13.4375 0 L 1.515625 0 L 1.515625 -20.84375 Z M 6.265625 -20.84375 "/></g></g></g><g fill="#000000" fill-opacity="1"><g transform="translate(14.81186, 22.982994)"><g><path d="M 6.265625 -20.84375 L 6.265625 0 L 1.515625 0 L 1.515625 -20.84375 Z M 6.265625 -20.84375 "/></g></g></g><g fill="#000000" fill-opacity="1"><g transform="translate(22.590462, 22.982994)"><g><path d="M 20.359375 -11.671875 L 20.359375 -7.15625 C 19.828125 -4.675781 18.648438 -2.800781 16.828125 -1.53125 C 15.003906 -0.257812 12.972656 0.375 10.734375 0.375 C 7.921875 0.375 5.523438 -0.675781 3.546875 -2.78125 C 1.566406 -4.882812 0.578125 -7.425781 0.578125 -10.40625 C 0.578125 -13.4375 1.546875 -15.992188 3.484375 -18.078125 C 5.421875 -20.171875 7.835938 -21.21875 10.734375 -21.21875 C 14.117188 -21.21875 16.796875 -20.03125 18.765625 -17.65625 L 15.671875 -14.25 C 14.554688 -16.03125 13.003906 -16.921875 11.015625 -16.921875 C 9.546875 -16.921875 8.289062 -16.285156 7.25 -15.015625 C 6.21875 -13.742188 5.703125 -12.207031 5.703125 -10.40625 C 5.703125 -8.632812 6.21875 -7.117188 7.25 -5.859375 C 8.289062 -4.609375 9.546875 -3.984375 11.015625 -3.984375 C 12.222656 -3.984375 13.273438 -4.347656 14.171875 -5.078125 C 15.078125 -5.816406 15.53125 -6.796875 15.53125 -8.015625 L 10.734375 -8.015625 L 10.734375 -11.671875 Z M 20.359375 -11.671875 "/></g></g></g><g fill="#000000" fill-opacity="1"><g transform="translate(43.527031, 22.982994)"><g><path d="M 6.265625 -12.9375 L 6.265625 0 L 1.515625 0 L 1.515625 -20.84375 L 6.265625 -20.84375 L 14.546875 -7.90625 L 14.609375 -7.90625 L 14.609375 -20.84375 L 19.359375 -20.84375 L 19.359375 0 L 14.609375 0 L 6.3125 -12.9375 Z M 6.265625 -12.9375 "/></g></g></g><g fill="#000000" fill-opacity="1"><g transform="translate(64.387837, 22.982994)"><g><path d="M 13.4375 -20.84375 L 13.4375 -16.671875 L 6.265625 -16.671875 L 6.265625 -12.53125 L 13.140625 -12.53125 L 13.140625 -8.359375 L 6.265625 -8.359375 L 6.265625 -4.171875 L 13.4375 -4.171875 L 13.4375 0 L 1.515625 0 L 1.515625 -20.84375 Z M 13.4375 -20.84375 "/></g></g></g><g fill="#000000" fill-opacity="1"><g transform="translate(79.035853, 22.982994)"><g/></g></g><g fill="#000000" fill-opacity="1"><g transform="translate(85.93052, 22.982994)"><g><path d="M 20.359375 -11.671875 L 20.359375 -7.15625 C 19.828125 -4.675781 18.648438 -2.800781 16.828125 -1.53125 C 15.003906 -0.257812 12.972656 0.375 10.734375 0.375 C 7.921875 0.375 5.523438 -0.675781 3.546875 -2.78125 C 1.566406 -4.882812 0.578125 -7.425781 0.578125 -10.40625 C 0.578125 -13.4375 1.546875 -15.992188 3.484375 -18.078125 C 5.421875 -20.171875 7.835938 -21.21875 10.734375 -21.21875 C 14.117188 -21.21875 16.796875 -20.03125 18.765625 -17.65625 L 15.671875 -14.25 C 14.554688 -16.03125 13.003906 -16.921875 11.015625 -16.921875 C 9.546875 -16.921875 8.289062 -16.285156 7.25 -15.015625 C 6.21875 -13.742188 5.703125 -12.207031 5.703125 -10.40625 C 5.703125 -8.632812 6.21875 -7.117188 7.25 -5.859375 C 8.289062 -4.609375 9.546875 -3.984375 11.015625 -3.984375 C 12.222656 -3.984375 13.273438 -4.347656 14.171875 -5.078125 C 15.078125 -5.816406 15.53125 -6.796875 15.53125 -8.015625 L 10.734375 -8.015625 L 10.734375 -11.671875 Z M 20.359375 -11.671875 "/></g></g></g><g fill="#000000" fill-opacity="1"><g transform="translate(106.867089, 22.982994)"><g><path d="M 1.515625 -20.84375 L 9.125 -20.84375 C 11.238281 -20.84375 12.953125 -20.296875 14.265625 -19.203125 C 15.585938 -18.109375 16.25 -16.515625 16.25 -14.421875 C 16.25 -12.335938 15.582031 -10.703125 14.25 -9.515625 C 12.914062 -8.328125 11.207031 -7.734375 9.125 -7.734375 L 6.265625 -7.734375 L 6.265625 0 L 1.515625 0 Z M 6.265625 -11.515625 L 7.609375 -11.515625 C 8.671875 -11.515625 9.539062 -11.726562 10.21875 -12.15625 C 10.90625 -12.59375 11.25 -13.300781 11.25 -14.28125 C 11.25 -15.269531 10.90625 -15.976562 10.21875 -16.40625 C 9.539062 -16.832031 8.671875 -17.046875 7.609375 -17.046875 L 6.265625 -17.046875 Z M 6.265625 -11.515625 "/></g></g></g><g fill="#000000" fill-opacity="1"><g transform="translate(123.687055, 22.982994)"><g><path d="M 6.265625 -20.84375 L 6.265625 -4.171875 L 13.4375 -4.171875 L 13.4375 0 L 1.515625 0 L 1.515625 -20.84375 Z M 6.265625 -20.84375 "/></g></g></g><g fill="#000000" fill-opacity="1"><g transform="translate(137.956245, 22.982994)"><g/></g></g><g fill="#000000" fill-opacity="1"><g transform="translate(144.850912, 22.982994)"><g><path d="M 1.515625 -9.25 L 9.65625 -9.25 L 9.65625 -5.375 L 1.515625 -5.375 Z M 1.515625 -9.25 "/></g></g></g><g fill="#000000" fill-opacity="1"><g transform="translate(156.013719, 22.982994)"><g/></g></g><g fill="#000000" fill-opacity="1"><g transform="translate(162.908386, 22.982994)"><g><path d="M 1.515625 -20.84375 L 8.96875 -20.84375 C 10.96875 -20.84375 12.597656 -20.304688 13.859375 -19.234375 C 15.128906 -18.171875 15.765625 -16.644531 15.765625 -14.65625 C 15.765625 -13.125 15.378906 -11.835938 14.609375 -10.796875 C 13.847656 -9.765625 12.8125 -9.035156 11.5 -8.609375 L 18.671875 0 L 12.640625 0 L 6.265625 -8.234375 L 6.265625 0 L 1.515625 0 Z M 6.265625 -11.59375 L 6.828125 -11.59375 C 7.265625 -11.59375 7.632812 -11.597656 7.9375 -11.609375 C 8.238281 -11.628906 8.582031 -11.691406 8.96875 -11.796875 C 9.351562 -11.898438 9.664062 -12.039062 9.90625 -12.21875 C 10.144531 -12.40625 10.347656 -12.675781 10.515625 -13.03125 C 10.679688 -13.382812 10.765625 -13.8125 10.765625 -14.3125 C 10.765625 -14.820312 10.679688 -15.253906 10.515625 -15.609375 C 10.347656 -15.960938 10.144531 -16.234375 9.90625 -16.421875 C 9.664062 -16.609375 9.351562 -16.75 8.96875 -16.84375 C 8.582031 -16.945312 8.238281 -17.003906 7.9375 -17.015625 C 7.632812 -17.035156 7.265625 -17.046875 6.828125 -17.046875 L 6.265625 -17.046875 Z M 6.265625 -11.59375 "/></g></g></g><g fill="#000000" fill-opacity="1"><g transform="translate(180.991113, 22.982994)"><g><path d="M 13.4375 -20.84375 L 13.4375 -16.671875 L 6.265625 -16.671875 L 6.265625 -12.53125 L 13.140625 -12.53125 L 13.140625 -8.359375 L 6.265625 -8.359375 L 6.265625 -4.171875 L 13.4375 -4.171875 L 13.4375 0 L 1.515625 0 L 1.515625 -20.84375 Z M 13.4375 -20.84375 "/></g></g></g><g fill="#000000" fill-opacity="1"><g transform="translate(195.639129, 22.982994)"><g><path d="M 1.515625 -20.84375 L 7.984375 -20.84375 C 9.941406 -20.84375 11.5 -20.425781 12.65625 -19.59375 C 13.820312 -18.757812 14.40625 -17.40625 14.40625 -15.53125 C 14.40625 -13.445312 13.535156 -11.957031 11.796875 -11.0625 C 14.765625 -10.539062 16.25 -8.789062 16.25 -5.8125 C 16.25 -4.0625 15.640625 -2.65625 14.421875 -1.59375 C 13.210938 -0.53125 11.546875 0 9.421875 0 L 1.515625 0 Z M 6.265625 -12.6875 L 6.640625 -12.6875 C 7.703125 -12.6875 8.492188 -12.867188 9.015625 -13.234375 C 9.535156 -13.609375 9.796875 -14.21875 9.796875 -15.0625 C 9.796875 -16.476562 8.742188 -17.1875 6.640625 -17.1875 L 6.265625 -17.1875 Z M 6.265625 -3.65625 L 7.75 -3.65625 C 10.082031 -3.65625 11.25 -4.429688 11.25 -5.984375 C 11.25 -6.910156 10.957031 -7.578125 10.375 -7.984375 C 9.789062 -8.390625 8.914062 -8.59375 7.75 -8.59375 L 6.265625 -8.59375 Z M 6.265625 -3.65625 "/></g></g></g></g></g></g><g fill="#000000" fill-opacity="1"><g transform="translate(2.584823, 31.399847)"><g><path d="M 9.203125 -21.21875 C 10.328125 -21.21875 11.425781 -21.050781 12.5 -20.71875 C 13.582031 -20.394531 14.382812 -20.070312 14.90625 -19.75 L 15.671875 -19.25 L 13.75 -15.46875 C 13.59375 -15.5625 13.378906 -15.6875 13.109375 -15.84375 C 12.835938 -16.007812 12.332031 -16.226562 11.59375 -16.5 C 10.851562 -16.769531 10.164062 -16.90625 9.53125 -16.90625 C 8.738281 -16.90625 8.125 -16.734375 7.6875 -16.390625 C 7.257812 -16.054688 7.046875 -15.601562 7.046875 -15.03125 C 7.046875 -14.75 7.144531 -14.484375 7.34375 -14.234375 C 7.550781 -13.992188 7.898438 -13.734375 8.390625 -13.453125 C 8.878906 -13.171875 9.304688 -12.945312 9.671875 -12.78125 C 10.046875 -12.613281 10.617188 -12.363281 11.390625 -12.03125 C 12.742188 -11.457031 13.894531 -10.675781 14.84375 -9.6875 C 15.789062 -8.707031 16.265625 -7.59375 16.265625 -6.34375 C 16.265625 -5.144531 16.050781 -4.097656 15.625 -3.203125 C 15.195312 -2.316406 14.609375 -1.617188 13.859375 -1.109375 C 13.109375 -0.609375 12.273438 -0.238281 11.359375 0 C 10.453125 0.25 9.46875 0.375 8.40625 0.375 C 7.5 0.375 6.609375 0.28125 5.734375 0.09375 C 4.859375 -0.0820312 4.125 -0.3125 3.53125 -0.59375 C 2.945312 -0.875 2.414062 -1.144531 1.9375 -1.40625 C 1.46875 -1.675781 1.125 -1.90625 0.90625 -2.09375 L 0.578125 -2.375 L 2.953125 -6.359375 C 3.160156 -6.191406 3.441406 -5.976562 3.796875 -5.71875 C 4.148438 -5.457031 4.773438 -5.109375 5.671875 -4.671875 C 6.578125 -4.234375 7.375 -4.015625 8.0625 -4.015625 C 10.0625 -4.015625 11.0625 -4.695312 11.0625 -6.0625 C 11.0625 -6.351562 10.988281 -6.617188 10.84375 -6.859375 C 10.707031 -7.097656 10.457031 -7.335938 10.09375 -7.578125 C 9.726562 -7.828125 9.40625 -8.023438 9.125 -8.171875 C 8.851562 -8.316406 8.398438 -8.535156 7.765625 -8.828125 C 7.140625 -9.117188 6.671875 -9.34375 6.359375 -9.5 C 5.097656 -10.125 4.125 -10.898438 3.4375 -11.828125 C 2.75 -12.765625 2.40625 -13.773438 2.40625 -14.859375 C 2.40625 -16.722656 3.09375 -18.25 4.46875 -19.4375 C 5.851562 -20.625 7.429688 -21.21875 9.203125 -21.21875 Z M 9.203125 -21.21875 "/></g></g></g><g fill="#000000" fill-opacity="1"><g transform="translate(24.107515, 31.399847)"><g><path d="M 0.578125 -10.4375 C 0.578125 -13.445312 1.601562 -15.992188 3.65625 -18.078125 C 5.71875 -20.171875 8.195312 -21.21875 11.09375 -21.21875 C 14.007812 -21.21875 16.484375 -20.175781 18.515625 -18.09375 C 20.554688 -16.019531 21.578125 -13.46875 21.578125 -10.4375 C 21.578125 -7.382812 20.570312 -4.816406 18.5625 -2.734375 C 16.5625 -0.660156 14.070312 0.375 11.09375 0.375 C 8.039062 0.375 5.523438 -0.65625 3.546875 -2.71875 C 1.566406 -4.78125 0.578125 -7.351562 0.578125 -10.4375 Z M 5.703125 -10.4375 C 5.703125 -9.34375 5.867188 -8.34375 6.203125 -7.4375 C 6.546875 -6.539062 7.140625 -5.78125 7.984375 -5.15625 C 8.828125 -4.53125 9.863281 -4.21875 11.09375 -4.21875 C 12.863281 -4.21875 14.195312 -4.820312 15.09375 -6.03125 C 16 -7.25 16.453125 -8.71875 16.453125 -10.4375 C 16.453125 -12.132812 15.988281 -13.59375 15.0625 -14.8125 C 14.144531 -16.039062 12.820312 -16.65625 11.09375 -16.65625 C 9.375 -16.65625 8.046875 -16.039062 7.109375 -14.8125 C 6.171875 -13.59375 5.703125 -12.132812 5.703125 -10.4375 Z M 5.703125 -10.4375 "/></g></g></g><g fill="#000000" fill-opacity="1"><g transform="translate(50.808514, 31.399847)"><g><path d="M 6.265625 -12.9375 L 6.265625 0 L 1.515625 0 L 1.515625 -20.84375 L 6.265625 -20.84375 L 14.546875 -7.90625 L 14.609375 -7.90625 L 14.609375 -20.84375 L 19.359375 -20.84375 L 19.359375 0 L 14.609375 0 L 6.3125 -12.9375 Z M 6.265625 -12.9375 "/></g></g></g><g fill="#000000" fill-opacity="1"><g transform="translate(76.221261, 31.399847)"><g><path d="M 12.109375 -20.84375 L 20.515625 0 L 15.40625 0 L 13.875 -4.171875 L 5.9375 -4.171875 L 4.390625 0 L -0.703125 0 L 7.703125 -20.84375 Z M 12.25 -8.34375 L 9.921875 -14.40625 L 9.875 -14.40625 L 7.546875 -8.34375 Z M 12.25 -8.34375 "/></g></g></g><g fill="#000000" fill-opacity="1"><g transform="translate(99.360411, 31.399847)"><g><path d="M 0.203125 -16.671875 L 0.203125 -20.84375 L 14.859375 -20.84375 L 14.859375 -16.671875 L 9.90625 -16.671875 L 9.90625 0 L 5.15625 0 L 5.15625 -16.671875 Z M 0.203125 -16.671875 "/></g></g></g><g fill="#000000" fill-opacity="1"><g transform="translate(118.963339, 31.399847)"><g><path d="M 1.515625 -20.84375 L 8.96875 -20.84375 C 10.96875 -20.84375 12.597656 -20.304688 13.859375 -19.234375 C 15.128906 -18.171875 15.765625 -16.644531 15.765625 -14.65625 C 15.765625 -13.125 15.378906 -11.835938 14.609375 -10.796875 C 13.847656 -9.765625 12.8125 -9.035156 11.5 -8.609375 L 18.671875 0 L 12.640625 0 L 6.265625 -8.234375 L 6.265625 0 L 1.515625 0 Z M 6.265625 -11.59375 L 6.828125 -11.59375 C 7.265625 -11.59375 7.632812 -11.597656 7.9375 -11.609375 C 8.238281 -11.628906 8.582031 -11.691406 8.96875 -11.796875 C 9.351562 -11.898438 9.664062 -12.039062 9.90625 -12.21875 C 10.144531 -12.40625 10.347656 -12.675781 10.515625 -13.03125 C 10.679688 -13.382812 10.765625 -13.8125 10.765625 -14.3125 C 10.765625 -14.820312 10.679688 -15.253906 10.515625 -15.609375 C 10.347656 -15.960938 10.144531 -16.234375 9.90625 -16.421875 C 9.664062 -16.609375 9.351562 -16.75 8.96875 -16.84375 C 8.582031 -16.945312 8.238281 -17.003906 7.9375 -17.015625 C 7.632812 -17.035156 7.265625 -17.046875 6.828125 -17.046875 L 6.265625 -17.046875 Z M 6.265625 -11.59375 "/></g></g></g><g fill="#000000" fill-opacity="1"><g transform="translate(141.597474, 31.399847)"><g><path d="M 12.109375 -20.84375 L 20.515625 0 L 15.40625 0 L 13.875 -4.171875 L 5.9375 -4.171875 L 4.390625 0 L -0.703125 0 L 7.703125 -20.84375 Z M 12.25 -8.34375 L 9.921875 -14.40625 L 9.875 -14.40625 L 7.546875 -8.34375 Z M 12.25 -8.34375 "/></g></g></g><g fill="#000000" fill-opacity="1"><g transform="translate(165.140845, 31.399847)"><g><path d="M 12.609375 -4.296875 C 13.328125 -4.296875 14.023438 -4.40625 14.703125 -4.625 C 15.390625 -4.84375 15.894531 -5.050781 16.21875 -5.25 L 16.703125 -5.578125 L 18.71875 -1.546875 C 18.65625 -1.492188 18.5625 -1.425781 18.4375 -1.34375 C 18.320312 -1.257812 18.050781 -1.101562 17.625 -0.875 C 17.195312 -0.644531 16.738281 -0.445312 16.25 -0.28125 C 15.757812 -0.113281 15.117188 0.0351562 14.328125 0.171875 C 13.535156 0.304688 12.71875 0.375 11.875 0.375 C 9.9375 0.375 8.097656 -0.0976562 6.359375 -1.046875 C 4.628906 -1.992188 3.234375 -3.300781 2.171875 -4.96875 C 1.109375 -6.644531 0.578125 -8.453125 0.578125 -10.390625 C 0.578125 -11.847656 0.890625 -13.25 1.515625 -14.59375 C 2.140625 -15.945312 2.96875 -17.101562 4 -18.0625 C 5.039062 -19.019531 6.25 -19.785156 7.625 -20.359375 C 9.007812 -20.929688 10.425781 -21.21875 11.875 -21.21875 C 13.21875 -21.21875 14.457031 -21.054688 15.59375 -20.734375 C 16.738281 -20.421875 17.546875 -20.101562 18.015625 -19.78125 L 18.71875 -19.296875 L 16.703125 -15.265625 C 16.585938 -15.359375 16.410156 -15.476562 16.171875 -15.625 C 15.929688 -15.769531 15.457031 -15.957031 14.75 -16.1875 C 14.039062 -16.425781 13.328125 -16.546875 12.609375 -16.546875 C 11.460938 -16.546875 10.429688 -16.359375 9.515625 -15.984375 C 8.609375 -15.617188 7.890625 -15.132812 7.359375 -14.53125 C 6.828125 -13.925781 6.421875 -13.269531 6.140625 -12.5625 C 5.867188 -11.863281 5.734375 -11.15625 5.734375 -10.4375 C 5.734375 -8.851562 6.328125 -7.429688 7.515625 -6.171875 C 8.703125 -4.921875 10.398438 -4.296875 12.609375 -4.296875 Z M 12.609375 -4.296875 "/></g></g></g><g fill="#000000" fill-opacity="1"><g transform="translate(188.709597, 31.399847)"><g><path d="M 6.265625 -8.359375 L 6.265625 0 L 1.515625 0 L 1.515625 -20.84375 L 6.265625 -20.84375 L 6.265625 -12.53125 L 12.984375 -12.53125 L 12.984375 -20.84375 L 17.734375 -20.84375 L 17.734375 0 L 12.984375 0 L 12.984375 -8.359375 Z M 6.265625 -8.359375 "/></g></g></g></g></g></svg>